<svg viewBox="138 198 354 218" fill="none" xmlns="http://www.w3.org/2000/svg" role="img" aria-label="Spirit Studio">
  <path
    fill="white"
    d="M176.462 285.188C171.842 285.188 167.552 284.33 163.592 282.614C159.632 280.832 156.266 278.423 153.494 275.387C150.722 272.351 148.676 268.853 147.356 264.893L157.256 260.735C159.038 265.289 161.645 268.787 165.077 271.229C168.509 273.671 172.469 274.892 176.957 274.892C179.597 274.892 181.907 274.496 183.887 273.704C185.867 272.846 187.385 271.658 188.441 270.14C189.563 268.622 190.124 266.873 190.124 264.893C190.124 262.187 189.365 260.042 187.847 258.458C186.329 256.874 184.085 255.62 181.115 254.696L167.255 250.34C161.711 248.624 157.487 246.017 154.583 242.519C151.679 238.955 150.227 234.797 150.227 230.045C150.227 225.887 151.25 222.257 153.296 219.155C155.342 215.987 158.147 213.512 161.711 211.73C165.341 209.948 169.466 209.057 174.086 209.057C178.508 209.057 182.534 209.849 186.164 211.433C189.794 212.951 192.896 215.063 195.47 217.769C198.11 220.475 200.024 223.61 201.212 227.174L191.51 231.431C190.058 227.537 187.781 224.534 184.679 222.422C181.643 220.31 178.112 219.254 174.086 219.254C171.644 219.254 169.499 219.683 167.651 220.541C165.803 221.333 164.351 222.521 163.295 224.105C162.305 225.623 161.81 227.405 161.81 229.451C161.81 231.827 162.569 233.939 164.087 235.787C165.605 237.635 167.915 239.021 171.017 239.945L183.887 244.004C189.761 245.786 194.183 248.36 197.153 251.726C200.123 255.026 201.608 259.151 201.608 264.101C201.608 268.193 200.519 271.823 198.341 274.991C196.229 278.159 193.292 280.667 189.53 282.515C185.768 284.297 181.412 285.188 176.462 285.188ZM213.633 303.8V230.441H224.325V241.529L223.038 238.955C225.018 235.919 227.658 233.543 230.958 231.827C234.258 230.111 238.02 229.253 242.244 229.253C247.326 229.253 251.88 230.474 255.906 232.916C259.998 235.358 263.199 238.691 265.509 242.915C267.885 247.139 269.073 251.891 269.073 257.171C269.073 262.451 267.885 267.203 265.509 271.427C263.199 275.651 260.031 279.017 256.005 281.525C251.979 283.967 247.392 285.188 242.244 285.188C238.086 285.188 234.291 284.33 230.859 282.614C227.493 280.898 224.886 278.423 223.038 275.189L224.82 273.11V303.8H213.633ZM241.155 274.793C244.323 274.793 247.128 274.034 249.57 272.516C252.012 270.998 253.926 268.919 255.312 266.279C256.764 263.573 257.49 260.537 257.49 257.171C257.49 253.805 256.764 250.802 255.312 248.162C253.926 245.522 252.012 243.443 249.57 241.925C247.128 240.407 244.323 239.648 241.155 239.648C238.053 239.648 235.248 240.407 232.74 241.925C230.298 243.443 228.351 245.522 226.899 248.162C225.513 250.802 224.82 253.805 224.82 257.171C224.82 260.537 225.513 263.573 226.899 266.279C228.351 268.919 230.298 270.998 232.74 272.516C235.248 274.034 238.053 274.793 241.155 274.793ZM279.955 284V230.441H291.142V284H279.955ZM279.955 223.115V210.245H291.142V223.115H279.955ZM304.221 284V230.441H314.914V241.232L313.924 239.648C315.112 236.15 317.026 233.642 319.666 232.124C322.306 230.54 325.474 229.748 329.17 229.748H332.437V239.945H327.784C324.088 239.945 321.085 241.1 318.775 243.41C316.531 245.654 315.409 248.888 315.409 253.112V284H304.221ZM340.09 284V230.441H351.277V284H340.09ZM340.09 223.115V210.245H351.277V223.115H340.09ZM387.522 284.594C381.912 284.594 377.556 283.01 374.454 279.842C371.352 276.674 369.801 272.219 369.801 266.477V240.539H360.396V230.441H361.881C364.389 230.441 366.336 229.715 367.722 228.263C369.108 226.811 369.801 224.831 369.801 222.323V218.165H380.988V230.441H393.165V240.539H380.988V265.982C380.988 267.83 381.285 269.414 381.879 270.734C382.473 271.988 383.43 272.978 384.75 273.704C386.07 274.364 387.786 274.694 389.898 274.694C390.426 274.694 391.02 274.661 391.68 274.595C392.34 274.529 392.967 274.463 393.561 274.397V284C392.637 284.132 391.614 284.264 390.492 284.396C389.37 284.528 388.38 284.594 387.522 284.594ZM176.462 405.188C171.842 405.188 167.552 404.33 163.592 402.614C159.632 400.832 156.266 398.423 153.494 395.387C150.722 392.351 148.676 388.853 147.356 384.893L157.256 380.735C159.038 385.289 161.645 388.787 165.077 391.229C168.509 393.671 172.469 394.892 176.957 394.892C179.597 394.892 181.907 394.496 183.887 393.704C185.867 392.846 187.385 391.658 188.441 390.14C189.563 388.622 190.124 386.873 190.124 384.893C190.124 382.187 189.365 380.042 187.847 378.458C186.329 376.874 184.085 375.62 181.115 374.696L167.255 370.34C161.711 368.624 157.487 366.017 154.583 362.519C151.679 358.955 150.227 354.797 150.227 350.045C150.227 345.887 151.25 342.257 153.296 339.155C155.342 335.987 158.147 333.512 161.711 331.73C165.341 329.948 169.466 329.057 174.086 329.057C178.508 329.057 182.534 329.849 186.164 331.433C189.794 332.951 192.896 335.063 195.47 337.769C198.11 340.475 200.024 343.61 201.212 347.174L191.51 351.431C190.058 347.537 187.781 344.534 184.679 342.422C181.643 340.31 178.112 339.254 174.086 339.254C171.644 339.254 169.499 339.683 167.651 340.541C165.803 341.333 164.351 342.521 163.295 344.105C162.305 345.623 161.81 347.405 161.81 349.451C161.81 351.827 162.569 353.939 164.087 355.787C165.605 357.635 167.915 359.021 171.017 359.945L183.887 364.004C189.761 365.786 194.183 368.36 197.153 371.726C200.123 375.026 201.608 379.151 201.608 384.101C201.608 388.193 200.519 391.823 198.341 394.991C196.229 398.159 193.292 400.667 189.53 402.515C185.768 404.297 181.412 405.188 176.462 405.188ZM236.799 404.594C231.189 404.594 226.833 403.01 223.731 399.842C220.629 396.674 219.078 392.219 219.078 386.477V360.539H209.673V350.441H211.158C213.666 350.441 215.613 349.715 216.999 348.263C218.385 346.811 219.078 344.831 219.078 342.323V338.165H230.265V350.441H242.442V360.539H230.265V385.982C230.265 387.83 230.562 389.414 231.156 390.734C231.75 391.988 232.707 392.978 234.027 393.704C235.347 394.364 237.063 394.694 239.175 394.694C239.703 394.694 240.297 394.661 240.957 394.595C241.617 394.529 242.244 394.463 242.838 394.397V404C241.914 404.132 240.891 404.264 239.769 404.396C238.647 404.528 237.657 404.594 236.799 404.594ZM272.862 405.188C268.836 405.188 265.305 404.297 262.269 402.515C259.233 400.667 256.857 398.126 255.141 394.892C253.491 391.592 252.666 387.797 252.666 383.507V350.441H263.853V382.517C263.853 384.959 264.348 387.104 265.338 388.952C266.328 390.8 267.714 392.252 269.496 393.308C271.278 394.298 273.324 394.793 275.634 394.793C278.01 394.793 280.089 394.265 281.871 393.209C283.653 392.153 285.039 390.668 286.029 388.754C287.085 386.84 287.613 384.596 287.613 382.022V350.441H298.701V404H288.108V393.506L289.296 394.892C288.042 398.192 285.963 400.733 283.059 402.515C280.155 404.297 276.756 405.188 272.862 405.188ZM336.513 405.188C331.365 405.188 326.745 403.967 322.653 401.525C318.627 399.017 315.426 395.651 313.05 391.427C310.74 387.203 309.585 382.451 309.585 377.171C309.585 371.891 310.773 367.139 313.149 362.915C315.525 358.691 318.726 355.358 322.752 352.916C326.778 350.474 331.332 349.253 336.414 349.253C340.704 349.253 344.499 350.111 347.799 351.827C351.099 353.543 353.706 355.919 355.62 358.955L353.937 361.529V329.057H365.025V404H354.432V393.11L355.719 395.189C353.871 398.423 351.231 400.898 347.799 402.614C344.367 404.33 340.605 405.188 336.513 405.188ZM337.602 394.793C340.704 394.793 343.476 394.034 345.918 392.516C348.426 390.998 350.373 388.919 351.759 386.279C353.211 383.573 353.937 380.537 353.937 377.171C353.937 373.805 353.211 370.802 351.759 368.162C350.373 365.522 348.426 363.443 345.918 361.925C343.476 360.407 340.704 359.648 337.602 359.648C334.5 359.648 331.695 360.407 329.187 361.925C326.679 363.443 324.732 365.522 323.346 368.162C321.96 370.802 321.267 373.805 321.267 377.171C321.267 380.537 321.96 383.573 323.346 386.279C324.732 388.919 326.646 390.998 329.088 392.516C331.596 394.034 334.434 394.793 337.602 394.793ZM378.085 404V350.441H389.272V404H378.085ZM378.085 343.115V330.245H389.272V343.115H378.085ZM428.19 405.188C423.042 405.188 418.323 403.967 414.033 401.525C409.809 399.083 406.443 395.75 403.935 391.526C401.427 387.302 400.173 382.517 400.173 377.171C400.173 371.759 401.427 366.974 403.935 362.816C406.443 358.592 409.809 355.292 414.033 352.916C418.257 350.474 422.976 349.253 428.19 349.253C433.47 349.253 438.189 350.474 442.347 352.916C446.571 355.292 449.904 358.592 452.346 362.816C454.854 366.974 456.108 371.759 456.108 377.171C456.108 382.583 454.854 387.401 452.346 391.625C449.838 395.849 446.472 399.182 442.248 401.624C438.024 404 433.338 405.188 428.19 405.188ZM428.19 394.793C431.358 394.793 434.163 394.034 436.605 392.516C439.047 390.998 440.961 388.919 442.347 386.279C443.799 383.573 444.525 380.537 444.525 377.171C444.525 373.805 443.799 370.802 442.347 368.162C440.961 365.522 439.047 363.443 436.605 361.925C434.163 360.407 431.358 359.648 428.19 359.648C425.088 359.648 422.283 360.407 419.775 361.925C417.333 363.443 415.386 365.522 413.934 368.162C412.548 370.802 411.855 373.805 411.855 377.171C411.855 380.537 412.548 383.573 413.934 386.279C415.386 388.919 417.333 390.998 419.775 392.516C422.283 394.034 425.088 394.793 428.19 394.793ZM471.98 404V391.13H483.365V404H471.98Z"
  />
</svg>
